<svg width="370" height="122" viewBox="0 0 370 122" fill="none" xmlns="http://www.w3.org/2000/svg">
<path d="M118.774 119.996C119.219 119.996 119.442 120.33 119.442 120.998C119.442 121.666 119.219 122 118.774 122C116.659 122 113.263 121.889 108.587 121.666C104.134 121.443 100.849 121.332 98.7341 121.332C96.1734 121.332 93.0004 121.443 89.2151 121.666C85.4297 121.889 82.5907 122 80.6981 122C80.2527 122 80.0301 121.666 80.0301 120.998C80.0301 120.33 80.2527 119.996 80.6981 119.996C84.4834 119.996 87.2111 119.662 88.8811 118.994C90.5511 118.215 91.3861 116.879 91.3861 114.986C91.3861 113.093 90.5511 110.477 88.8811 107.137L70.1771 68.393H39.4491L25.7551 99.956C24.1964 103.63 23.4171 106.692 23.4171 109.141C23.4171 116.378 28.8167 119.996 39.6161 119.996C40.1727 119.996 40.4511 120.33 40.4511 120.998C40.4511 121.666 40.1727 122 39.6161 122C37.6121 122 34.7174 121.889 30.9321 121.666C26.7014 121.443 23.0274 121.332 19.9101 121.332C17.0154 121.332 13.5641 121.443 9.55606 121.666C5.9934 121.889 3.09873 122 0.872062 122C0.426729 122 0.204062 121.666 0.204062 120.998C0.204062 120.33 0.426729 119.996 0.872062 119.996C3.9894 119.996 6.60573 119.384 8.72106 118.159C10.9477 116.934 13.0631 114.819 15.0671 111.813C17.0711 108.807 19.3534 104.354 21.9141 98.453L57.4851 16.456C57.5964 16.122 57.9861 15.955 58.6541 15.955C59.3221 15.8437 59.7117 16.0107 59.8231 16.456L100.07 99.121C103.855 107.248 107.084 112.759 109.756 115.654C112.428 118.549 115.434 119.996 118.774 119.996ZM40.9521 64.552H68.3401L53.9781 34.492L40.9521 64.552ZM125.296 122C125.074 122 124.962 121.666 124.962 120.998C124.962 120.33 125.074 119.996 125.296 119.996C129.416 119.996 132.088 119.272 133.312 117.825C134.648 116.266 135.316 113.149 135.316 108.473L135.483 22.635C135.483 18.627 135.094 15.788 134.314 14.118C133.535 12.3367 132.199 11.446 130.306 11.446C128.414 11.446 126.02 12.1697 123.125 13.617H122.791C122.457 13.617 122.179 13.3387 121.956 12.782C121.734 12.2253 121.789 11.8913 122.123 11.78L144.501 1.09199L145.169 0.924996C145.615 0.924996 146.06 1.09199 146.505 1.42599C146.951 1.75999 147.173 2.14966 147.173 2.59499V108.473C147.173 113.149 147.786 116.266 149.01 117.825C150.346 119.272 153.018 119.996 157.026 119.996C157.472 119.996 157.694 120.33 157.694 120.998C157.694 121.666 157.472 122 157.026 122C154.466 122 152.406 121.944 150.847 121.833L141.161 121.666L131.809 121.833C130.251 121.944 128.08 122 125.296 122ZM170.677 122C170.343 122 170.176 121.666 170.176 120.998C170.176 120.33 170.343 119.996 170.677 119.996C174.685 119.996 177.357 119.272 178.693 117.825C180.029 116.266 180.697 113.149 180.697 108.473V77.745C180.697 73.737 180.307 70.898 179.528 69.228C178.749 67.4467 177.357 66.556 175.353 66.556C173.46 66.556 171.067 67.2797 168.172 68.727H168.005C167.56 68.727 167.226 68.4487 167.003 67.892C166.78 67.224 166.892 66.8343 167.337 66.723L190.049 56.202L190.717 56.035C191.051 56.035 191.385 56.202 191.719 56.536C192.164 56.87 192.387 57.2597 192.387 57.705C192.387 58.4843 192.331 60.711 192.22 64.385C192.109 68.059 192.053 72.401 192.053 77.411V108.473C192.053 113.149 192.665 116.266 193.89 117.825C195.226 119.272 197.954 119.996 202.073 119.996C202.407 119.996 202.574 120.33 202.574 120.998C202.574 121.666 202.407 122 202.073 122C199.401 122 197.23 121.944 195.56 121.833L186.375 121.666L177.19 121.833C175.52 121.944 173.349 122 170.677 122ZM185.373 37.498C182.812 37.498 180.753 36.7743 179.194 35.327C177.747 33.8797 177.023 31.8757 177.023 29.315C177.023 26.8657 177.747 24.973 179.194 23.637C180.753 22.1897 182.812 21.466 185.373 21.466C187.822 21.466 189.715 22.1897 191.051 23.637C192.498 24.973 193.222 26.8657 193.222 29.315C193.222 31.8757 192.498 33.8797 191.051 35.327C189.715 36.7743 187.822 37.498 185.373 37.498ZM213.852 122C213.629 122 213.518 121.666 213.518 120.998C213.518 120.33 213.629 119.996 213.852 119.996C217.971 119.996 220.643 119.272 221.868 117.825C223.204 116.266 223.872 113.149 223.872 108.473L224.039 22.635C224.039 18.627 223.649 15.788 222.87 14.118C222.091 12.3367 220.755 11.446 218.862 11.446C216.969 11.446 214.576 12.1697 211.681 13.617H211.347C211.013 13.617 210.735 13.3387 210.512 12.782C210.289 12.2253 210.345 11.8913 210.679 11.78L233.057 1.09199L233.725 0.924996C234.17 0.924996 234.616 1.09199 235.061 1.42599C235.506 1.75999 235.729 2.14966 235.729 2.59499V108.473C235.729 113.149 236.341 116.266 237.566 117.825C238.902 119.272 241.574 119.996 245.582 119.996C246.027 119.996 246.25 120.33 246.25 120.998C246.25 121.666 246.027 122 245.582 122C243.021 122 240.962 121.944 239.403 121.833L229.717 121.666L220.365 121.833C218.806 121.944 216.635 122 213.852 122ZM368.785 119.996C369.23 119.996 369.453 120.33 369.453 120.998C369.453 121.666 369.23 122 368.785 122C366.669 122 363.274 121.889 358.598 121.666C354.144 121.443 350.86 121.332 348.745 121.332C346.184 121.332 343.011 121.443 339.226 121.666C335.44 121.889 332.601 122 330.709 122C330.263 122 330.041 121.666 330.041 120.998C330.041 120.33 330.263 119.996 330.709 119.996C334.494 119.996 337.222 119.662 338.892 118.994C340.562 118.215 341.397 116.879 341.397 114.986C341.397 113.093 340.562 110.477 338.892 107.137L320.188 68.393H289.46L275.766 99.956C274.207 103.63 273.428 106.692 273.428 109.141C273.428 116.378 278.827 119.996 289.627 119.996C290.183 119.996 290.462 120.33 290.462 120.998C290.462 121.666 290.183 122 289.627 122C287.623 122 284.728 121.889 280.943 121.666C276.712 121.443 273.038 121.332 269.921 121.332C267.026 121.332 263.575 121.443 259.567 121.666C256.004 121.889 253.109 122 250.883 122C250.437 122 250.215 121.666 250.215 120.998C250.215 120.33 250.437 119.996 250.883 119.996C254 119.996 256.616 119.384 258.732 118.159C260.958 116.934 263.074 114.819 265.078 111.813C267.082 108.807 269.364 104.354 271.925 98.453L307.496 16.456C307.607 16.122 307.997 15.955 308.665 15.955C309.333 15.8437 309.722 16.0107 309.834 16.456L350.081 99.121C353.866 107.248 357.095 112.759 359.767 115.654C362.439 118.549 365.445 119.996 368.785 119.996ZM290.963 64.552H318.351L303.989 34.492L290.963 64.552Z" fill="#F1F1F1"/>
</svg>
